<?xml version="1.0" encoding="UTF-8" standalone="no"?>
<!-- Created with Inkscape (http://www.inkscape.org/) -->

<svg
   width="210mm"
   height="297mm"
   viewBox="0 0 210 297"
   version="1.1"
   id="svg1"
   xml:space="preserve"
   inkscape:version="1.3 (0e150ed6c4, 2023-07-21)"
   sodipodi:docname="Heart.svg"
   xmlns:inkscape="http://www.inkscape.org/namespaces/inkscape"
   xmlns:sodipodi="http://sodipodi.sourceforge.net/DTD/sodipodi-0.dtd"
   xmlns="http://www.w3.org/2000/svg"
   xmlns:svg="http://www.w3.org/2000/svg"><sodipodi:namedview
     id="namedview1"
     pagecolor="#ffffff"
     bordercolor="#000000"
     borderopacity="0.25"
     inkscape:showpageshadow="2"
     inkscape:pageopacity="0.0"
     inkscape:pagecheckerboard="0"
     inkscape:deskcolor="#d1d1d1"
     inkscape:document-units="mm"
     inkscape:zoom="0.73890575"
     inkscape:cx="399.23901"
     inkscape:cy="525.77747"
     inkscape:window-width="1350"
     inkscape:window-height="1237"
     inkscape:window-x="1194"
     inkscape:window-y="63"
     inkscape:window-maximized="0"
     inkscape:current-layer="layer1" /><defs
     id="defs1" /><g
     inkscape:label="Layer 1"
     inkscape:groupmode="layer"
     id="layer1"><g
       style="fill:#aa0000"
       id="g2"
       transform="matrix(0.14325864,0,0,0.14325864,110.60911,104.17285)"
       inkscape:export-filename="heart-empty.png"
       inkscape:export-xdpi="37.587715"
       inkscape:export-ydpi="37.587715"><g
         id="g1"
         style="fill:#aa0000">&#10;	<path
   d="m 433.601,67.001 c -24.7,-24.7 -57.4,-38.2 -92.3,-38.2 -34.9,0 -67.7,13.6 -92.4,38.3 l -12.9,12.9 -13.1,-13.1 c -24.7,-24.7 -57.6,-38.4 -92.5,-38.4 -34.8,0 -67.6,13.6 -92.2,38.2 -24.7,24.7 -38.3,57.5 -38.2,92.4 0,34.9 13.7,67.6 38.4,92.3 l 187.8,187.8 c 2.6,2.6 6.1,4 9.5,4 3.4,0 6.9,-1.3 9.5,-3.9 l 188.2,-187.5 c 24.7,-24.7 38.3,-57.5 38.3,-92.4 0.1,-34.9 -13.4,-67.7 -38.1,-92.4 z m -19.2,165.7 -178.7,178 -178.3,-178.3 c -19.6,-19.6 -30.4,-45.6 -30.4,-73.3 0,-27.7 10.7,-53.7 30.3,-73.2 19.5,-19.5 45.5,-30.3 73.1,-30.3 27.7,0 53.8,10.8 73.4,30.4 l 22.6,22.6 c 5.3,5.3 13.8,5.3 19.1,0 l 22.4,-22.4 c 19.6,-19.6 45.7,-30.4 73.3,-30.4 27.6,0 53.6,10.8 73.2,30.3 19.6,19.6 30.3,45.6 30.3,73.3 0.1,27.7 -10.7,53.7 -30.3,73.3 z"
   id="path1"
   style="fill:#aa0000" />&#10;</g></g><g
       style="fill:#aa0000"
       id="g3"
       transform="matrix(3.7570237,0,0,3.7570237,20.57424,92.969894)"
       inkscape:export-filename="heart-full.png"
       inkscape:export-xdpi="37.55928"
       inkscape:export-ydpi="37.55928"><path
         d="M 12,5.881 C 12.981,4.729 14.484,4 16.05,4 18.822,4 21,6.178 21,8.95 c 0,3.3992 -3.055,6.1695 -7.6836,10.3667 L 13.305,19.327 12,20.515 10.695,19.336 10.6595,19.3037 C 6.04437,15.1098 3,12.3433 3,8.95 3,6.178 5.178,4 7.95,4 9.516,4 11.019,4.729 12,5.881 Z"
         fill="#000000"
         id="path1-1"
         style="fill:#aa0000" /></g></g></svg>
